<svg id="Layer_1" data-name="Layer 1" xmlns="http://www.w3.org/2000/svg" viewBox="0 0 57 52.27"><title>canasta_black</title><path d="M40.06,13.78h5L37.65,1.07a2.16,2.16,0,0,0-3.73,2.18Z"/><path d="M23.1,3.25a2.16,2.16,0,1,0-3.72-2.18L12,13.79h5Z"/><path d="M53.33,17.68H3.66A3.66,3.66,0,0,0,0,21.34V25.4a3.66,3.66,0,0,0,3.66,3.66H4.81L8.34,48.22A5,5,0,0,0,13,52.27H43.27a5,5,0,0,0,4.65-4.05l3.56-19.17h1.86A3.66,3.66,0,0,0,57,25.39V21.33A3.67,3.67,0,0,0,53.33,17.68ZM20.22,36.82v8.26a2.07,2.07,0,0,1-4.14,0V33.5a2.07,2.07,0,0,1,4.14,0Zm6.65,0v8.26a2.07,2.07,0,0,1-4.14,0V33.5a2.06,2.06,0,0,1,2.07-2.07,2.11,2.11,0,0,1,2.07,2.07Zm6.68,4.8v3.46a2.07,2.07,0,0,1-4.14,0V33.5a2.11,2.11,0,0,1,2.07-2.07,2.07,2.07,0,0,1,2.07,2.07Zm6.65,0v3.46a2.08,2.08,0,0,1-4.15,0V33.5a2.08,2.08,0,0,1,4.15,0Z"/></svg>