<?xml version="1.0" encoding="utf-8"?>
<!-- Generator: Adobe Illustrator 22.1.0, SVG Export Plug-In . SVG Version: 6.00 Build 0)  -->
<svg version="1.1" id="Capa_1" xmlns="http://www.w3.org/2000/svg" xmlns:xlink="http://www.w3.org/1999/xlink" x="0px" y="0px"
	 viewBox="0 0 1281.1 558.8" style="enable-background:new 0 0 1281.1 558.8;" xml:space="preserve">
<style type="text/css">
	.st0{display:none;fill:#9A6E3C;}
	.st1{fill:#FFFFFF;}
	.st2{fill:#070108;}
	.st3{display:none;}
	.st4{display:inline;fill:#070108;}
	.st5{fill:#201813;}
	.st6{fill:none;}
</style>
<rect x="-13.9" y="-17.4" class="st0" width="1320.5" height="616.1"/>
<g>
	<g>
		<path class="st5" d="M1239.2,423.7c0,0-50.8-37.3-112.2,30.9s-175.8,90.3-175.8,90.3c60.3,0,178.5-58.7,191.4-82.8
			c0,0,52.2-56.1,86.5-31.2c39.7,28.9-3.8,55.4-3.8,55.4c-24.6,22.2-86.3-8.8-86.3-8.8l-13.6,9c0,0,67.6,41.7,111.1,8
			C1281.3,459.8,1239.2,423.7,1239.2,423.7z"/>
		<g>
			<path class="st5" d="M195.8,414.5c-15.7-24.1-42.9-42.7-20.8-75.9s42.9-80.5,42.9-80.5s12.2-44.2-12.9-77.7s-66.6-30.9-122.8-8.6
				s-52.2,68-44.6,85.9s26.6-3.4,29-30.8c2.4-27.5,31.2-52.2,49.5-58.6c81.5-22.7,70.5,69.4,64.7,87.2c-50.1,80.6-46.5,80.6-51.3,98
				c-11.9,62.3,47.4,86.1,47.4,86.1s45.8,44.4,323.5-21.3c378.5-89.6,598.5,53,598.5,53l16.6-9.5c-218.1-114.5-477.6-89.8-645-53.2
				C470.4,408.6,225.7,460.4,195.8,414.5z"/>
			<g>
				<path class="st5" d="M98,324.1l35.4-12.5c-2.4,5.1-4.8,10.3-6.8,15.8l-28.9,10.2C97.5,333.4,97.6,328.9,98,324.1z"/>
				<path class="st5" d="M120.9,212.8l47.2-16.7c1.8,3.8,2.9,8.4,3.5,13.7l-49.9,17.6C122.1,222.5,121.9,217.5,120.9,212.8z"/>
				<path class="st5" d="M115.8,252.8c1.6-3.5,3.2-8.6,4.4-14.4l0.2,0.5l51.5-18.2c-0.2,4.1-0.8,8.5-1.7,13.4l-54.5,19.3
					C115.7,253.1,115.7,252.9,115.8,252.8z"/>
				<path class="st5" d="M109.5,269.5l56.6-20c-1.7,5.2-3.7,10.7-6.1,16.7c-0.3,0.5-0.7,1.2-1.1,1.7l-54.8,19.4
					C105.6,281.6,107.4,275.6,109.5,269.5z"/>
				<path class="st5" d="M101.5,298.9l48.7-17.2c-3.1,4.9-6.5,10.6-10,16.9l-41.1,14.5C99.7,308.5,100.5,303.8,101.5,298.9z"/>
				<path class="st5" d="M98.2,348.1l24.3-8.6c-1.7,5.8-3,11.7-3.8,17.7l-18.1,6.4C99.6,358.9,98.8,353.7,98.2,348.1z"/>
				<path class="st5" d="M103.3,373.3l14.6-5.2c-0.1,4.5,0.3,9,1.1,13.5l-10.7,3.8C106.6,382,104.9,378,103.3,373.3z"/>
				<path class="st5" d="M98.7,193.9l-5.3-2.2l39.2-16.1c0,0,14.6-0.5,26,8.5l-44.5,15.7C110.5,196.4,105.6,194.1,98.7,193.9z"/>
				<path class="st5" d="M123.7,398.3l-5.6,2c0,0-2-2.1-4.7-6.1l7.9-2.8C122,393.7,122.7,396.1,123.7,398.3z"/>
			</g>
		</g>
		<g>
			<path class="st5" d="M671.6,128.8c1.1-7.2,4.9-10.7,11.3-10.7c0.9,0,1.9,0.1,3,0.2c1.1,0,2.4,0.2,4,0.6c0.5,0.5,1,1.1,1.4,1.6
				c-4.7-0.2-8.1,0.7-10.4,2.5c-2.4,2-4,5.4-4.7,10.1c-1.7,9.8-2,21.5-0.9,35.1c-0.7,0-0.8,0-0.4,0c-1.3,0-2,0-2,0s-0.4-0.1-1.2-0.4
				c-0.4-1.5-0.6-3-0.8-4.6C669.6,150.1,669.9,138.5,671.6,128.8z"/>
			<path class="st5" d="M1037,256.9c-0.2,1.2-0.6,3.6-1,7.2c0,0.3,0.1,0.4,0.1,0.4s0,0.3,0,0.8c-3.2,5.8-6.4,12.1-9.4,18.8
				c-2.2-0.8-3.8-1.5-4.6-2.1c0.2-0.6,0.6-1.7,1.2-3.2c4.8-11.9,9.3-20.5,13.5-25.9C1037.1,254.5,1037.2,255.8,1037,256.9z"/>
			<path class="st5" d="M285.4,149.5c2,8.6,3.6,14.9,4.8,19.2c1.1,3.7,2.5,7.3,4.3,10.9c0.3,0.1,0.5,0.1,0.6,0
				c0.3-0.1,0.4-0.2,0.5-0.3c0.5-0.8,1.1-1.8,1.7-3.1c-0.2-0.1-0.3-0.4-0.4-0.9c-0.1-0.4-0.2-0.7-0.2-1c-1.1-4-2.5-9.1-4-15.5
				l-3.8-15.5c-1.2-4.8-2.3-8.3-3.2-10.5c-1.3-3.6-3.5-5.7-6.5-6.2c0.9,2.5,2,6.2,3.4,11.1C283.2,140.8,284.2,144.7,285.4,149.5z"/>
			<path class="st5" d="M426.6,371.5c3.1-0.8,6.1-1.8,8.9-3c1.6-0.8,2.7-2,3.3-3.5c0.4-1.6,0.2-3.2-0.6-4.8
				c-1.6-3.2-3.6-6.3-5.8-9.5c-25.8-35.4-50.2-69-73.3-100.7c-6.4-8.8-11.9-16-16.3-21.7c-4.2-5.4-5.5-11.3-3.9-17.9
				c0.2-0.7,1-4.4,2.5-11c11.2-49.8,17.7-78.4,19.4-85.8c1-4.8,1.8-8.9,2.3-12.5c0.3-1.6,0-2.9-1-3.9c-0.9-1-2.1-1.4-3.6-1.2
				c-11.5,1.6-24.4,4.7-38.6,9.4c-3.6,1.2-6,3.9-7.2,8.2c-0.6,2.5-1.5,6.1-2.7,10.7c-0.9,4.2-2.4,11.2-4.6,21.1
				c-2.1,9-3.8,16-4.9,21c-1.5,6.5-3.2,11.1-4.9,13.5c-1.3,1.5-2.9,2.3-5,2.3c-2.1,0-3.5-0.9-4.4-2.6c-2.1-3.9-3.6-7.8-4.6-11.8
				c-1.2-4.1-2.5-9.3-4-15.5l-3.9-15.7c-1.2-4.8-2.3-8.3-3.2-10.5c-1.9-4.9-5.2-6.9-9.9-6c-8.9,1.8-17.7,4-26.3,6.5
				c-4.8,1.5-6.9,4.8-6.2,10c0.4,3.3,1.4,8,2.8,13.9c5.6,22.5,13.9,56.2,25.1,101.3l-13.3,12.8c-1.9,1.8-2.5,4-1.9,6.4
				c0.6,2.5,2.2,4.1,4.7,4.8l17.7,5.1l24.6,99.2c1.7,7,3,11.6,3.8,13.9c1.1,3.4,2.5,5.7,4.2,7c1.8,1.1,4.3,1.3,7.6,0.8
				c7.7-1.5,15.5-3.4,23.2-5.8c3.7-1.1,6.2-2.6,7.3-4.5c1-1.9,1.2-4.8,0.5-8.8c-0.4-2.4-2.6-11.2-6.3-26.4l-9.4-38.8
				c-1.6-7-1.3-12.7,0.9-17.1c0.7-1.5,1.9-2.5,3.6-2.9c1.8-0.6,3.3-0.4,4.6,0.5c2.8,1.8,6,5.3,9.8,10.5c2.1,3,11,15.6,26.6,37.8
				c8.9,12.6,13.8,19.6,14.6,20.8c6.6,10.1,15.2,13.4,25.7,9.9c2.8-1,6.4-1.9,10.8-2.9C421.6,372.7,425.3,371.8,426.6,371.5z"/>
			<path class="st5" d="M339,210.4C338.9,210.4,338.9,210.5,339,210.4C338.9,210.7,338.9,210.7,339,210.4z"/>
			<path class="st5" d="M343.3,363l-9.4-38.8c-1.4-6.1-1.3-11.3,0.3-15.5c-1.7-1.9-2.6-2.9-2.6-2.9s-0.7-0.5-2.2-1.5
				c-0.3-0.1-0.6-0.1-0.8,0c-0.3,0.1-0.4,0.2-0.5,0.3c-1.8,3.5-2,8.1-0.7,13.9c1.3,5.3,3.4,13.9,6.4,25.8l5,20.1
				c2.1,8.5,3.6,15,4.4,19.5c2,9.7-1.7,15.9-11,18.8c-3.7,1.1-7.4,2-11,2.9c-1.9,0.5-5.1,1.2-9.5,2.2c1.8,0.8,4.1,1,6.9,0.5
				c7.8-1.5,15.6-3.5,23.2-5.8c3.8-1.1,6.3-2.6,7.3-4.5c1.2-1.9,1.3-4.9,0.5-8.8C349.1,386.8,347,378,343.3,363z"/>
			<path class="st5" d="M450.8,362c0,0-1.1-1.6-3.4-4.7c-25.4-35.1-49.9-68.7-73.3-100.7c-6.5-9-11.9-16.2-16.3-21.7
				c-4.2-5.4-5.5-11.4-3.8-18c-0.2,0.7,0.6-2.9,2.4-11.1c11.8-51.9,18.3-80.4,19.5-85.6c1-4.6,1.9-8.8,2.4-12.5
				c0.2-1.5-0.2-2.8-1.2-3.8c-0.9-1-2.1-1.4-3.4-1.2c-0.3-0.1-0.6,0-1,0c-0.4,0.1-0.6,0.2-0.8,0.2l-0.1,1.1c-0.6,3.7-1.4,8-2.5,13
				c-3.2,14.6-7.8,35-13.8,61.2l-5.5,24.4c-0.2,1.3-0.5,2.7-0.8,4.1c-0.7,3.2-1.2,5.5-1.6,7c-1.3,5.1-0.4,9.8,2.8,13.9
				c4.4,5.6,9.9,12.9,16.5,21.8c23.8,32.8,48.1,66.4,73.1,100.7c2.4,3.2,4.6,6.6,6.4,10.1c1.4,2.8,1.6,5.6,0.7,8.5
				c-1.1,2.9-3,4.9-5.7,6.1c-3.1,1.4-6.3,2.6-9.8,3.5l-2.5,0.6c-1.2,0.3-3,0.8-5.6,1.4c-2.6,0.6-4.5,1.1-5.6,1.4
				c-3,0.7-5.5,1.4-7.5,2.1c-1,0.4-1.9,0.7-2.7,0.9c3.6,0.9,7.7,0.5,12.3-1c2.6-0.9,6.2-1.9,10.6-2.8c6.1-1.5,9.8-2.4,11-2.7
				c3.1-0.8,6.1-1.8,8.9-3.2c1.6-0.7,2.7-1.8,3.3-3.3c0.4-1.6,0.2-3.2-0.6-4.8C451.6,363.6,450.8,362,450.8,362z"/>
			<path class="st5" d="M520,360.4c26.9-2.4,46.7-17.3,59.4-44.7c1.8-4,2.8-7.6,2.9-10.8c0.9-17.3,1.1-27.9,0.6-32
				c-3.2-25.9-8.5-70.3-15.9-133.2c-1.3-10.7-4.5-22-9.7-33.8c-4-8.9-10.7-16.8-19.9-23.8c-9.4-6.9-18.8-10.8-28.1-11.7
				c-12.8-1.3-27,0.3-42.7,4.7c-4.8,1.4-9.4,4.1-13.7,8.1c-21.1,19.4-30,41-26.6,64.9c0.1,0.6,0.3,2.5,0.7,5.6l47.4-7.5
				c-0.4-3.5-0.6-6.1-0.6-7.8c0.3-10.6,5.7-17,16.2-19c10.7-2.1,18.2,1.5,22.4,10.8c1.8,3.8,3,8.4,3.7,13.8
				c2.8,23.7,8.3,69,16.3,136.2c0.8,6.5,0.5,11.7-0.7,15.8c-2.6,8.5-8.4,13.1-17.4,13.9c-8.9,0.9-15.4-2.6-19.6-10.5
				c-1.7-3.1-3.1-8.8-4-17l-2.8-23.4l-47.4,7.5l1.2,9.9l46.2-7.3l1.6,10.2l-46.6,7.4l1.5,12.4c1.5,12.7,5.2,23.2,11,31.5
				C471,352.9,492.6,362.9,520,360.4z"/>
			<path class="st5" d="M477.3,171.3l-1.8-14.9l-47.3,7.5c0.4,2.9,0.8,6.3,1.2,10l47.2-7.4L477.3,171.3z"/>
			<path class="st5" d="M582.9,149.3c-1.3-10.7-4.5-21.9-9.6-33.6c-3.1-7.3-8.4-14.1-15.7-20.4c4.6,5.2,8.1,10.4,10.5,15.4
				c5.2,12,8.4,23.5,9.7,34.4l1.5,12.9c6.6,55.4,11.4,95.5,14.4,120.5c0.7,5.5,0.7,13.9,0,24.9c-0.2,2.7-0.4,5.1-0.5,7.3
				c-0.1,3.6-1.1,7.5-3,11.6c-12.8,27.4-32.5,42.7-59,45.9c-0.8,0.1-1.6,0.2-2.4,0.3c-6.1,0.6-12.2,0.5-18.3-0.4
				c8.2,2.1,16.7,2.8,25.6,2c26.9-2.4,46.7-17.3,59.4-44.7c1.8-4,2.8-7.6,2.9-10.8c0.9-17.1,1.1-27.7,0.6-31.8
				C595.6,256.7,590.2,212.2,582.9,149.3z"/>
			<path class="st5" d="M478,176.7l-47.4,7.5c0.4,3.3,0.8,6.7,1.2,10.4l47.4-7.5L478,176.7z"/>
			<polygon class="st5" points="482.9,218 435.6,225.4 436.8,235.5 484.1,228 			"/>
			<path class="st5" d="M480.5,197.4l-47.4,7.5c0.4,3.3,0.8,6.7,1.2,10.3l47.4-7.5L480.5,197.4z"/>
			<polygon class="st5" points="485.3,238.2 438,245.7 439.2,256.1 486.6,248.7 			"/>
			<path class="st5" d="M485.6,156.3c1.2,10.4,3.1,26,5.6,46.6l10.3,86.2c0.8,6.7,2,11.6,3.6,14.7c1.1,0.5,2.4,0.9,3.8,1.2
				c-0.8-2.4-1.6-6.7-2.3-12.8l-15.7-131.6c-0.7-6.1-1.1-10.3-1.1-12.5c0.3-10.6,5.7-17,16.2-19l0.2,0c-0.5-0.6-1.1-1.2-1.8-1.8
				c-1.8-0.1-2.8-0.1-3.2,0c-0.7,0.1-1.4,0.2-2.2,0.3c-9.2,1.9-13.9,7.4-14.1,16.6c-0.1,2.4,0.1,6,0.7,10.8L485.6,156.3z"/>
			<path class="st5" d="M750.3,213.7c0.1,0.2,0.2,0.3,0.3,0.5C750.6,214.1,750.5,213.9,750.3,213.7z"/>
			<path class="st5" d="M671.6,168c0.8,0.3,1.2,0.4,1.2,0.4s0.7,0,2,0c-0.4,0-0.3,0,0.4,0c-1.1-13.6-0.8-25.3,0.9-35.1
				c0.7-4.8,2.3-8.2,4.7-10.1c2.3-1.8,5.7-2.7,10.4-2.5c-0.4-0.5-0.9-1.1-1.4-1.6c-1.6-0.4-2.9-0.6-4-0.6c-1.1-0.1-2.1-0.2-3-0.2
				c-6.4-0.1-10.1,3.5-11.3,10.7c-1.7,9.7-1.9,21.2-0.7,34.5C671,165,671.2,166.5,671.6,168z"/>
			<path class="st5" d="M693.4,345.2c18.5-1.2,33.7-8.7,45.7-22.5c10.9-12.8,16.3-27.2,16.2-43.2c0-9.3,0-16.8,0.2-22.4
				c1-20.2-4.7-37.4-16.9-51.7c-3.2-3.6-4.8-6.7-4.9-9.2c0-2.4,1.5-5.5,4.5-9.3c12.7-16.3,17.4-37,14.3-62.1
				c-2.6-20.4-10.4-36.4-23.5-47.9c-12.7-11.2-28.3-16.5-47-16c-6.8,0.2-15.3,0.2-25.5,0c-15.3-0.3-23.9-0.4-25.7-0.4
				c-10,0-16,1-18,2.8c-1.9,1.8-2.9,7.8-3,17.7c-0.1,8.3-0.4,48.7-1.1,121.3l-1.1,116.8c-0.1,6.5,0,10.8,0.1,12.8
				c0.4,4.9,1.3,8.3,2.9,10c1.8,2,5,3,9.4,3.1C658.3,345.8,682.8,345.9,693.4,345.2z M661.6,121.8c0.8-5,2.5-8.6,5.1-10.5
				c2.5-1.8,6.4-2.5,11.6-1.9c10.9,1,17.8,6.6,20.8,16.8c0.1,0.5,1,4.7,2.7,12.6c-0.4,9-2.6,17.2-6.6,24.5c-2.3,4-6,6.8-11.3,8.5
				c-14.1,4.5-21.9-0.4-23.2-14.8C659.7,143.3,660,131.6,661.6,121.8z M660,285.8c-0.1-1.5-0.1-10,0-25.5l-0.2,0l-0.2,0
				c0.1-14,0.3-21.4,0.4-22.4c0.7-8,3.9-13.3,9.5-16.1c5.6-2.7,12-2,19.1,2.2c5.8,3.5,8.7,5.3,8.7,5.3s1.1,3.1,3.3,9.2
				c5.8,16.2,4.7,31.6-3.4,46.3c-4.7,8.7-13.4,12.9-25.9,12.3C664.4,296.8,660.6,293,660,285.8z"/>
			<path class="st5" d="M747.4,195.2c-3.1,4-4.2,7.2-3.3,9.8c2.2,2.7,4.1,5.4,5.7,8c0,0.1,0.1,0.3,0.4,0.6c0,0,0.1,0.1,0.1,0.1
				c-1.6-2.6-2.3-4.9-2-6.9c0.3-2.3,1.7-5,4.3-8.3c12.7-16.3,17.4-37,14.3-62.1c-2.1-16.9-8-30.9-17.8-42.1
				c7.1,10.4,11.5,22.8,13.2,37C765.6,157.1,760.6,178.4,747.4,195.2z"/>
			<path class="st5" d="M769.9,268.9c1-20.4-4.6-37.6-16.9-51.9c0.3,0.4,0.1,0.2-0.6-0.6c9.6,13.4,13.9,29.3,12.9,47.6
				c-0.2,5.5-0.3,12.8-0.2,22.2c0.1,16.5-5.5,31.4-17,44.8c-12.4,14.4-28,22.2-46.9,23.3c-9.3,0.6-20,0.8-31.9,0.7
				c-6-0.1-14.9-0.2-26.7-0.4c-6.7-0.2-11.6-0.3-15-0.3c-0.1,0-0.8-0.1-2-0.2c1.8,1.6,4.8,2.5,8.8,2.7c38.4,0.7,62.9,0.8,73.5,0.3
				c18.5-1.2,33.7-8.7,45.7-22.7c10.9-12.8,16.3-27.1,16.2-43C769.6,281.8,769.7,274.3,769.9,268.9z"/>
			<path class="st5" d="M674.3,292.3c-0.1-2.7-0.1-6.1-0.1-10.4c0.2-5.7,0.3-9.1,0.3-10.2l-0.2,0l-0.2,0c0.1-14,0.3-21.4,0.4-22.4
				c0.6-5.4,2.3-9.8,5.3-12.9c3.1-3,6.8-4.5,11.2-4.5c-0.8-0.8-1.2-1.2-1.2-1.2s-0.3-0.2-0.8-0.6c-1.7-0.5-3.3-0.8-4.8-0.8
				c-4,0-7.3,1.3-9.8,4.1c-2.6,2.8-4.1,6.6-4.5,11.3c-0.3,3.5-0.4,8.5-0.3,15.2c0.1,2.1,0.2,3.7,0.2,4.6l0.4,2.4
				c0,1.2-0.1,3.8-0.3,7.8c-0.2,7.6-0.2,13.3,0,17.2c0.9,0.3,1.5,0.4,1.8,0.4c0.7,0,1.3,0,1.8,0c0.1,0,0.3,0,0.4,0
				C674,292.3,674.1,292.3,674.3,292.3z"/>
			<path class="st5" d="M919.2,369.7c-0.2,2.5-1.1,4.5-2.8,6.1c-1.8,1.9-4,2.8-6.7,2.6c-6-0.2-12.3-0.8-18.7-1.8
				c-5.1-0.8-10.7-1.9-16.7-3.3c1.4,1.6,3,2.6,5,3.2c13,3.2,25.2,4.9,36.5,5.3c2,0,3.7-0.6,5.1-1.9c1.3-1.4,1.9-3.1,2-5.2
				c0-0.9,0-1.9,0-2.9c0,0,0,0-0.1,0C921.3,371.3,920.1,370.6,919.2,369.7z"/>
			<path class="st5" d="M913,274.1c-1.2-10.3,1.5-18.4,7.9-24.4c9.2-8.7,14.6-17.8,16.2-27.2c5.8-36.9,9.3-60.8,10.5-71.5
				c1.3-12.3-1.6-23.7-8.8-34c4.4,9.1,6.1,18.6,5,28.4c-1.4,12.8-4.1,32-8.2,57.5l-2.3,14.2c-1.5,10-7.1,19.5-16.8,28.6
				c-5.9,5.6-8.4,13.1-7.2,22.5c1.8,15.5,4.4,38.7,7.5,69.5l1.6,16.6c0.2,1.4,0.3,2.7,0.4,4.1c0.6-1.3,1.5-3.1,2.6-5.3
				C917.2,313.1,914.4,286.8,913,274.1z"/>
			<path class="st5" d="M845.3,264c0-0.1,0-0.3-0.1-0.4l-0.2-0.2c-4.8-0.2-8,2.2-9.6,7.2c-1,3.1-2,7.6-2.9,13.7
				c-1.2,8.2-2.9,19.2-5,33.2l-3.8,25.1c-0.8,5.3-1.5,9.2-2.2,11.8c-1.9,7-6.3,10.1-13.3,9.3c-4.8-0.6-9.5-1.2-14.2-1.9
				c-4.5-0.7-9.1-1.4-14-2.3c1.2,1.7,3.3,2.8,6.2,3.3c9.4,1.8,18.9,3.2,28.4,4.3c5.7,0.6,9.2-1.9,10.6-7.5c0.8-2.4,1.6-6.6,2.5-12.5
				c0.7-4.7,2.1-14.3,4.3-28.6c1.8-11.8,3.2-21.4,4.3-28.6c0.9-6.2,1.9-10.9,2.9-14.1c1.2-3.7,3.5-6.3,6.8-7.7
				c-0.3-1.7-0.4-2.5-0.4-2.5S845.6,265,845.3,264z"/>
			<path class="st5" d="M908.1,366.2c1.4-1.3,2.1-3,2.2-5.1c0-3.9-0.3-8.6-0.9-14.3c-4.6-44.1-7.6-72.9-9.1-86.3
				c-1.3-10.2,1.3-18.3,7.9-24.4c9.2-8.6,14.6-17.6,16.2-27c5.8-36.9,9.3-60.8,10.5-71.5c1.2-11.4-1.1-22-7-31.7
				c-5.8-9.6-14.1-16.6-24.7-21.1c-12.5-5.4-23.7-8.7-33.6-9.9c-5.5-0.7-12.7-1.8-21.5-3.2c-11.4-1.7-18.6-2.8-21.5-3.2
				c-9.8-1.3-15.7-1.2-17.8,0.4c-2.1,1.6-3.9,7.4-5.5,17.5c-1.5,9.7-7.5,49.9-18.1,120.6c-9.8,65.3-15.7,104.4-17.6,117.4
				c-1,6.7-1.6,11.5-1.7,14.3c-0.4,6,2.2,9.5,7.7,10.6c9.3,1.8,18.8,3.2,28.4,4.3c5.6,0.6,9.1-1.9,10.6-7.5
				c0.6-2.5,1.4-6.7,2.3-12.8l4.3-28.4c1.8-12,3.3-21.5,4.5-28.6c0.9-6.2,1.9-10.9,2.9-14.1c1.9-6.2,5.8-9.2,11.8-8.9
				c6,0.1,9.9,3.2,11.5,9.4c0.6,2.4,1.1,5.5,1.4,9.5c0.8,8.3,1.8,19.5,3,33.6c1.4,16.5,2.4,27.7,2.8,33.5c0.6,6,1.1,10.8,1.7,14.4
				c0.7,5.1,3.3,8.2,7.7,9.2c13,3.3,25.1,5.1,36.5,5.5C905.1,368.3,906.8,367.6,908.1,366.2z M887.1,150.6c-0.2,3.2-2,15.3-5.4,36.3
				c-0.1,0.8-0.6,2.3-1.3,4.6c-2.8,7.2-7.6,12.3-14.4,15.2c-6.9,2.9-13.9,2.8-21.1-0.3c-6.2-2.5-8.9-7.2-8.2-13.9
				c0.3-1.8,1.8-11.9,4.5-30.2l-0.2,0c2.5-16.6,3.8-25.5,4-26.8c2.4-10.8,9.2-14.6,20.3-11.5c1.3,0.3,3.3,1,6.1,2.1
				c6.3,2.6,10.7,5.6,12.9,9.2C886.9,139,887.8,144.1,887.1,150.6z"/>
			<path class="st5" d="M877,135.9c-2.7-1.1-4-1.6-4-1.6s-0.6-0.2-1.7-0.5c-1.2-0.3-2.3-0.6-3.5-0.7c-7.4-1.1-11.9,2.4-13.7,10.5
				c-0.9,4-1.9,10.2-3,18.5c-0.4,2.6-0.7,4.6-0.9,5.9l-0.2,2.4c-0.3,2-0.7,4.9-1.3,8.9c-1.6,9.6-2.6,16.6-3,21.1c0-0.3,0-0.3,0,0
				c0,0,0,0,0,0c0,0.2-0.1,0.5-0.1,1c1,0.4,1.4,0.6,1.1,0.6c0.3,0,1.3,0.3,3.1,0.9c0.3-1.7,1.6-10.7,4.1-27l-0.2,0
				c2.5-16.8,3.9-25.8,4.3-27c2.3-10.8,9-14.7,20.1-11.5l2.5,1c-0.1-0.1-0.3-0.5-0.6-1.1C878.6,136.6,877.7,136.2,877,135.9z"/>
			<path class="st5" d="M845.8,200.5C845.8,200.5,845.8,200.5,845.8,200.5C845.8,200.1,845.8,200.1,845.8,200.5z"/>
			<path class="st5" d="M918.8,358.3c-0.3,0.7-0.6,1.3-0.8,1.7c-1.5,4.3-1.1,7.5,1.2,9.7c0-0.3,0-0.5,0-0.8
				C919.3,365.8,919.1,362.2,918.8,358.3z"/>
			<path class="st5" d="M1016.7,343.2l-1.1-0.4c-0.9-0.4-1.4-0.6-1.7-0.7l-5.9-1.8c-6.1-1.9-10.1-2.4-11.9-1.4
				c-2.5,1.2-5.4,5.6-8.7,13.2c-2.2,5.2-5.9,12.6-11.3,22.2c-2,3.7-3.4,6.3-4.3,7.8c-3.9,7.4-9.7,10.1-17.5,7.9
				c-6.1-1.8-11.6-3.4-16.3-4.9c-2.3-0.7-5.7-1.9-10.2-3.4c1,1.7,2.5,2.9,4.5,3.5c8.1,3,18.3,6.2,30.4,9.7c5.2,1.5,9.3-0.3,12.1-5.4
				c9.1-17,14.2-26.9,15.4-29.9c4.1-9.5,8.2-14.9,12.4-16.2c2.9-0.9,9.3,0.2,19,3.4C1020.7,345.3,1019.1,344.1,1016.7,343.2z"/>
			<path class="st5" d="M1061.8,413.1c3.8-1.8,6.4-8.5,8-20.3c0.5-3.5,5.3-38.4,14.3-104.9l15.3-3.4c2.6-0.6,4.2-2.1,5-4.5
				c0.8-2.4,0.2-4.6-1.5-6.5l-14.7-15.9c6.1-44.2,11-80,14.7-107.3c0.4-3.2,0.7-5.8,0.8-7.9c0.2-4.7-0.3-7.9-1.4-9.6
				c-1.1-1.7-3.7-3.4-7.9-5c-0.8-0.2-6.9-2.1-18.3-5.7l0.1-0.2c-9.9-3.1-15.5-4.8-16.8-5.2c-6.2-1.9-10.8-2.4-13.6-1.3
				c-3,1.3-6.1,4.9-9.1,11c-10.3,20.6-27.1,53.6-50.3,98.9l-22.3,5c-2.6,0.6-4.2,2.1-5,4.5c-0.8,2.4-0.3,4.6,1.5,6.5l11.3,12.1
				c-0.2,0.3-0.5,0.8-0.7,1.5c-0.3,0.5-0.6,0.9-0.8,1.2c-7.5,14.7-23.4,46-47.8,94c-0.5,1.1-1,2-1.4,2.9c0.2,2.4,0.5,4.8,0.8,7.3
				c0.5,4.3,0.8,8.2,0.8,11.6c8.1,3,18.2,6.2,30.4,9.7c5.2,1.5,9.2-0.3,12-5.5c9.2-17.1,14.4-27,15.6-29.8c4.1-9.6,8.3-15,12.6-16.1
				c2.9-0.9,9.5,0.3,19.6,3.6c0.1,0,1.1,0.4,3,1.1c6.7,2.4,9.7,6.8,9.2,13.3c-0.7,7.6-1.2,12.4-1.6,14.4c-0.4,3.2-1.2,7.9-2.3,14.1
				c-1.1,6.3-1.9,11-2.3,14.1c-0.6,3.8-0.4,6.8,0.6,8.8c1.2,1.9,3.5,3.6,7,5.1c1.7,0.7,7.3,2.5,16.7,5.4
				C1053.2,413.2,1059.3,414.3,1061.8,413.1z M1041,251.2c0,0.5-0.6,5.2-1.6,13.9c-0.9,7.3-1.7,12.7-2.3,16.2
				c-0.6,3.8-1.2,6-1.6,6.6c-1.3,2.7-5.4,2.9-12.4,0.7c-7.5-2.2-10.8-4.8-9.9-7.9c0.4-1.3,1-3,1.8-5.1c6.4-15.7,12.3-26.8,17.5-33.4
				c1.1-1.2,2.4-1.8,4.1-1.7c2.2,0.1,3.6,1.5,4.1,4.2C1041.2,247.3,1041.3,249.4,1041,251.2z"/>
			<path class="st5" d="M1112.3,286.9l-1.2-1.4c-1.4,4.2-4.2,6.7-8.2,7.7l-12.1,2.7l-13.8,101.3c-2,14.4-4.6,22.7-7.9,24.7
				c-3.2,2.1-9.8,1.6-19.8-1.6l-11.2-3.7c-2.8-0.9-5.5-1.8-8.1-2.7c1.3,1.7,3.4,3.1,6.2,4.2c1.7,0.7,7.4,2.5,16.9,5.5
				c9.7,3.2,15.8,4.2,18.3,3c3.8-1.8,6.4-8.5,8-20.3c1.8-13.5,4.2-31,7.2-52.5c3.8-27.9,6.2-45.4,7.1-52.3l15.3-3.4
				c2.6-0.6,4.2-2.1,5-4.5C1114.6,291,1114.1,288.8,1112.3,286.9z"/>
			<path class="st5" d="M1023.2,278.9c-0.6,1.5-1,2.5-1.2,3.2c0.8,0.5,2.3,1.2,4.6,2.1c3.1-6.7,6.2-13,9.4-18.8c0-0.5,0-0.8,0-0.8
				s0-0.1-0.1-0.4c0.4-3.6,0.8-6,1-7.2c0.2-1.1,0.1-2.3-0.3-3.8C1032.5,258.4,1028,267,1023.2,278.9z"/>
			<path class="st5" d="M1095.6,259.9l3.2,3.3c3-22.1,7.5-55.2,13.5-99.5c0.5-3.3,0.7-6,0.8-7.9c0.3-5.4-0.5-8.9-2.3-10.8
				c0,0.1,0,0.3,0,0.6c-0.1,0.3-0.1,0.5,0,0.8c-0.1,2.1-0.4,4.8-0.9,8.3L1095.6,259.9z"/>
			<path class="st5" d="M921.3,353c-1.1,2.3-2,4.1-2.6,5.3c0.3,3.9,0.5,7.5,0.4,10.6c0,0.3,0,0.5,0,0.8c0.9,0.9,2.2,1.6,3.7,2.1
				c0,0,0,0,0.1,0c-0.1-3.4-0.4-7.2-0.8-11.6C921.8,357.8,921.6,355.3,921.3,353z"/>
		</g>
	</g>
</g>
</svg>
