<?xml version="1.0" encoding="utf-8"?>
<!-- Generator: Adobe Illustrator 22.0.0, SVG Export Plug-In . SVG Version: 6.00 Build 0)  -->
<svg version="1.1" id="Layer_1" xmlns="http://www.w3.org/2000/svg" xmlns:xlink="http://www.w3.org/1999/xlink" x="0px" y="0px"
	 viewBox="0 0 1259.3 1226.6" style="enable-background:new 0 0 1259.3 1226.6;" xml:space="preserve">
<style type="text/css">
	.st0{fill:#ECF1F5;}
	.st1{fill:#FFFFFF;}
	.st2{fill:#38A9B1;}
	.st3{fill:#0BC0A5;}
	.st4{fill:#646566;}
	.st5{fill:#606060;}
</style>
<g>
	<g>
		<g>
			<g>
				<path d="M684.3,857.6c-51.9-79.7-141.8-141.2-68.8-251s141.8-266.2,141.8-266.2s40.3-146.1-42.7-256.9s-220.2-102.2-406-28.4
					S136.1,280,161.2,339.2c25.1,59.2,88-11.2,95.9-101.8C265,146.4,360.3,64.8,420.8,43.6c269.5-75.1,233.1,229.5,213.9,288.3
					C469,598.4,481,598.4,465.1,656c-32.4,169.7,95,253,140.8,277.1C605.9,933.1,665.3,894.3,684.3,857.6z"/>
				<g>
					<path d="M360.9,558.7l117-41.3c-7.9,16.9-15.9,34.1-22.5,52.2l-95.6,33.7C359.3,589.5,359.6,574.6,360.9,558.7z"/>
					<path d="M436.6,190.7l156.1-55.2c6,12.6,9.6,27.8,11.6,45.3l-165,58.2C440.6,222.8,440,206.3,436.6,190.7z"/>
					<path d="M419.8,323c5.3-11.6,10.6-28.4,14.5-47.6l0.7,1.7l170.3-60.2c-0.7,13.6-2.6,28.1-5.6,44.3L419.5,325
						C419.5,324,419.5,323.3,419.8,323z"/>
					<path d="M399,378.2l187.1-66.1c-5.6,17.2-12.2,35.4-20.2,55.2c-1,1.7-2.3,4-3.6,5.6l-181.2,64.1
						C386.1,418.2,392,398.4,399,378.2z"/>
					<path d="M372.5,475.4l161-56.9c-10.2,16.2-21.5,35-33.1,55.9l-135.9,47.9C366.5,507.2,369.2,491.6,372.5,475.4z"/>
					<path d="M361.6,638.1l80.3-28.4c-5.6,19.2-9.9,38.7-12.6,58.5l-59.8,21.2C366.2,673.8,363.6,656.6,361.6,638.1z"/>
					<path d="M378.5,721.4l48.3-17.2c-0.3,14.9,1,29.8,3.6,44.6L395,761.4C389.4,750.2,383.7,737,378.5,721.4z"/>
					<path d="M363.2,128.2l-17.5-7.3l129.6-53.2c0,0,48.3-1.7,86,28.1l-147.1,51.9C402.3,136.5,386.1,128.9,363.2,128.2z"/>
					<path d="M445.9,804.1l-18.5,6.6c0,0-6.6-6.9-15.5-20.2l26.1-9.3C440.3,788.9,442.6,796.8,445.9,804.1z"/>
				</g>
			</g>
		</g>
	</g>
	<path d="M1185.4,727.7c0,0-209.1-153.5-461.8,127.2S0,1226.6,0,1226.6c248.2,0,734.7-241.6,787.8-340.8c0,0,214.9-230.9,356-128.4
		c163.4,119-15.6,228-15.6,228C1027,1076.7,773,949.1,773,949.1l-56,37c0,0,278.2,171.6,457.3,32.9
		C1358.7,876.3,1185.4,727.7,1185.4,727.7z"/>
</g>
</svg>
